<?xml version="1.0" encoding="UTF-8" standalone="no"?>
<svg width="100px" height="100px" viewBox="0 0 100 100" version="1.1" xmlns="http://www.w3.org/2000/svg" xmlns:xlink="http://www.w3.org/1999/xlink">
    <!-- Generator: Sketch 39.1 (31720) - http://www.bohemiancoding.com/sketch -->
    <title>Slice</title>
    <desc>Created with Sketch.</desc>
    <defs></defs>
    <g id="Page-1" stroke="none" stroke-width="1" fill="none" fill-rule="evenodd">
        <rect id="Rectangle" fill="#EF6E64" x="0" y="0" width="100" height="100" rx="8"></rect>
        <path d="M50.2611863,13 C34.0905307,13 21,26.0905307 21,42.4151925 C21,62.7440166 41.9448491,81.3787721 48.4131113,86.3069719 C49.491155,87.2310094 51.0312175,87.2310094 52.2632674,86.3069719 C58.7315297,81.2247659 79.5223725,62.7440166 79.5223725,42.4151925 C79.5223725,26.0905307 66.4318418,13 50.2611863,13 L50.2611863,13 Z M50.2611863,54.5816857 C43.4849116,54.5816857 37.9406868,49.037461 37.9406868,42.2611863 C37.9406868,35.4849116 43.4849116,29.9406868 50.2611863,29.9406868 C57.037461,29.9406868 62.5816857,35.4849116 62.5816857,42.2611863 C62.5816857,49.037461 57.037461,54.5816857 50.2611863,54.5816857 L50.2611863,54.5816857 Z" id="Shape" fill="#FFFFFF"></path>
    </g>
</svg>