<?xml version="1.0" encoding="utf-8"?>
<!-- Generator: Adobe Illustrator 16.0.0, SVG Export Plug-In . SVG Version: 6.00 Build 0)  -->
<!DOCTYPE svg PUBLIC "-//W3C//DTD SVG 1.1//EN" "http://www.w3.org/Graphics/SVG/1.1/DTD/svg11.dtd">
<svg version="1.1" id="Layer_1" xmlns="http://www.w3.org/2000/svg" xmlns:xlink="http://www.w3.org/1999/xlink" x="0px" y="0px"
	 width="88.316px" height="88.318px" viewBox="0 0 88.316 88.318" enable-background="new 0 0 88.316 88.318" xml:space="preserve">
<g id="Layer_1_copy">
	<path fill="#E9696E" d="M88.316,73.268c0,8.312-6.738,15.051-15.054,15.051H15.05C6.737,88.319,0,81.581,0,73.268V15.052
		C0,6.74,6.737,0,15.05,0h58.215c8.312,0,15.054,6.74,15.054,15.052L88.316,73.268L88.316,73.268z"/>
</g>
<g id="Layer_5">
	<g>
		<path fill="#FFFFFF" d="M68.883,35.941H19.554c-0.963,0-1.806,0.842-1.806,1.805v29.478c0,2.646,2.166,4.812,4.812,4.812h43.312
			c2.647,0,4.812-2.165,4.812-4.812V37.746C70.687,36.783,69.844,35.941,68.883,35.941z M35.797,62.41
			c0,0.722-0.48,1.203-1.203,1.203h-4.812c-0.722,0-1.203-0.481-1.203-1.203v-4.812c0-0.723,0.481-1.203,1.203-1.203h4.812
			c0.723,0,1.203,0.48,1.203,1.203V62.41z M35.797,50.379c0,0.723-0.48,1.203-1.203,1.203h-4.812c-0.722,0-1.203-0.48-1.203-1.203
			v-4.812c0-0.723,0.481-1.203,1.203-1.203h4.812c0.723,0,1.203,0.48,1.203,1.203V50.379z M47.828,62.41
			c0,0.722-0.48,1.203-1.203,1.203h-4.812c-0.723,0-1.203-0.481-1.203-1.203v-4.812c0-0.723,0.48-1.203,1.203-1.203h4.812
			c0.723,0,1.203,0.48,1.203,1.203V62.41z M47.828,50.379c0,0.723-0.48,1.203-1.203,1.203h-4.812c-0.723,0-1.203-0.48-1.203-1.203
			v-4.812c0-0.723,0.48-1.203,1.203-1.203h4.812c0.723,0,1.203,0.48,1.203,1.203V50.379z M59.859,62.41
			c0,0.722-0.481,1.203-1.203,1.203h-4.812c-0.722,0-1.202-0.481-1.202-1.203v-4.812c0-0.723,0.48-1.203,1.202-1.203h4.812
			c0.722,0,1.203,0.48,1.203,1.203V62.41z M59.859,50.379c0,0.723-0.481,1.203-1.203,1.203h-4.812c-0.722,0-1.202-0.48-1.202-1.203
			v-4.812c0-0.723,0.48-1.203,1.202-1.203h4.812c0.722,0,1.203,0.48,1.203,1.203V50.379z M65.875,20.301h-6.016v-2.405
			c0-1.927-1.563-3.609-3.609-3.609c-1.925,0-3.608,1.564-3.608,3.609v2.405H35.797v-2.405c0-1.927-1.563-3.609-3.608-3.609
			c-1.925,0-3.609,1.564-3.609,3.609v2.405h-6.016c-2.647,0-4.812,2.166-4.812,4.812v3.008c0,0.962,0.842,1.805,1.806,1.805h49.327
			c0.963,0,1.806-0.842,1.806-1.805v-3.008C70.687,22.466,68.522,20.301,65.875,20.301z"/>
	</g>
</g>
</svg>