<?xml version="1.0" encoding="UTF-8" standalone="no"?>
<svg width="100px" height="100px" viewBox="0 0 100 100" version="1.1" xmlns="http://www.w3.org/2000/svg" xmlns:xlink="http://www.w3.org/1999/xlink">
    <!-- Generator: Sketch 39.1 (31720) - http://www.bohemiancoding.com/sketch -->
    <title>Slice</title>
    <desc>Created with Sketch.</desc>
    <defs></defs>
    <g id="Page-1" stroke="none" stroke-width="1" fill="none" fill-rule="evenodd">
        <rect id="Rectangle" fill="#699BE1" x="0" y="0" width="100" height="100" rx="8"></rect>
        <path d="M79.5333333,17 L21.4666667,17 C19.01,17 17,19.01 17,21.4666667 L17,30.4 C17,32.8566667 19.01,34.8666667 21.4666667,34.8666667 L79.5333333,34.8666667 C81.99,34.8666667 84,32.8566667 84,30.4 L84,21.4666667 C84,19.01 81.99,17 79.5333333,17 L79.5333333,17 Z M51.6166667,30.4 L51.6166667,21.4666667 L79.5333333,21.4666667 L79.5333333,30.4 L51.6166667,30.4 L51.6166667,30.4 Z M79.5333333,41.5666667 L21.4666667,41.5666667 C19.01,41.5666667 17,43.5766667 17,46.0333333 L17,54.9666667 C17,57.4233333 19.01,59.4333333 21.4666667,59.4333333 L79.5333333,59.4333333 C81.99,59.4333333 84,57.4233333 84,54.9666667 L84,46.0333333 C84,43.5766667 81.99,41.5666667 79.5333333,41.5666667 L79.5333333,41.5666667 Z M41.5666667,54.9666667 L41.5666667,46.0333333 L79.5333333,46.0333333 L79.5333333,54.9666667 L41.5666667,54.9666667 L41.5666667,54.9666667 Z M79.5333333,66.1333333 L21.4666667,66.1333333 C19.01,66.1333333 17,68.1433333 17,70.6 L17,79.5333333 C17,81.99 19.01,84 21.4666667,84 L79.5333333,84 C81.99,84 84,81.99 84,79.5333333 L84,70.6 C84,68.1433333 81.99,66.1333333 79.5333333,66.1333333 L79.5333333,66.1333333 Z M61.6666667,79.5333333 L61.6666667,70.6 L79.5333333,70.6 L79.5333333,79.5333333 L61.6666667,79.5333333 L61.6666667,79.5333333 Z" id="Shape" fill="#FFFFFF"></path>
    </g>
</svg>