<?xml version="1.0" encoding="UTF-8" standalone="no"?>
<svg width="100px" height="100px" viewBox="0 0 100 100" version="1.1" xmlns="http://www.w3.org/2000/svg" xmlns:xlink="http://www.w3.org/1999/xlink">
	<g stroke="none" stroke-width="1" fill="none" fill-rule="evenodd">
		<path d="M120,108 C120,114.6 114.6,120 108,120 L12,120 C5.4,120 0,114.6 0,108 L0,12 C0,5.4 5.4,0 12,0 L108,0 C114.6,0 120,5.4 120,12 L120,108 L120,108 Z" id="Shape" fill="#EE0000"/>
		<path fill="#fff" d="m50 20c-16.5 0-30 13.5-30 30s13.5 30 30 30 30-13.5 30-30-13.5-30-30-30z m23.8 27h-7.9c-0.3-7.1-1.9-13.3-4.3-18 6.6 3.7 11.2 10.3 12.2 18z m-26.8-19.7v19.7h-6.9c0.5-9.4 3.5-16.8 6.9-19.7z m0 25.7v19.7c-3.4-2.9-6.4-10.3-6.9-19.7h6.9z m6 19.7v-19.7h6.9c-0.5 9.4-3.5 16.8-6.9 19.7z m0-25.7v-19.7c3.4 2.9 6.4 10.3 6.9 19.7h-6.9z m-14.6-18c-2.4 4.7-3.9 10.9-4.3 18h-7.9c1-7.7 5.6-14.3 12.2-18z m-12.2 24h7.9c0.3 7.1 1.9 13.3 4.3 18-6.6-3.7-11.2-10.3-12.2-18z m35.4 18c2.4-4.7 3.9-10.9 4.3-18h7.9c-1 7.7-5.6 14.3-12.2 18z"></path>
	</g>
</svg>