<?xml version="1.0" encoding="UTF-8"?>
<svg width="309px" height="150px" viewBox="0 0 309 150" version="1.1" xmlns="http://www.w3.org/2000/svg" xmlns:xlink="http://www.w3.org/1999/xlink">
    <!-- Generator: Sketch 49.1 (51147) - http://www.bohemiancoding.com/sketch -->
    <title>Slice</title>
    <desc>Created with Sketch.</desc>
    <defs></defs>
    <g id="Page-1" stroke="none" stroke-width="1" fill="none" fill-rule="evenodd">
        <path d="M88.659,38.816 L95.286,38.816 C99.059,38.816 101.621,38.034 102.971,36.47 C104.321,34.905 104.996,33.233 104.996,31.453 C104.996,29.46 104.252,27.688 102.764,26.138 C101.276,24.589 99.198,23.815 96.529,23.815 C91.435,23.815 88.229,26.499 86.91,31.868 L73.887,29.796 C74.96,24.95 77.56,20.938 81.687,17.763 C85.813,14.587 90.899,13 96.943,13 C103.263,13 108.577,14.505 112.889,17.513 C117.199,20.522 119.354,24.637 119.354,29.855 C119.354,36.702 115.765,41.384 108.586,43.902 C117.023,46.14 121.242,51.107 121.242,58.803 C121.242,64.321 119.085,68.858 114.776,72.414 C110.465,75.971 104.521,77.75 96.943,77.75 C89.671,77.75 83.911,75.921 79.662,72.264 C75.412,68.607 72.859,64.069 72,58.651 L85.346,56.719 C86.635,63.192 90.377,66.428 96.575,66.428 C99.458,66.428 101.798,65.665 103.593,64.134 C105.388,62.605 106.285,60.555 106.285,57.985 C106.285,55.262 105.464,53.227 103.823,51.88 C102.181,50.534 99.044,49.861 94.411,49.861 L88.659,49.861 L88.659,38.816" id="Fill-59" fill="#FFFFFF"></path>
        <path d="M153.759,67.211 C156.428,67.211 158.652,66.316 160.432,64.525 C162.21,62.735 163.101,60.202 163.101,56.926 C163.101,54.018 162.141,51.715 160.224,50.017 C158.306,48.319 156.167,47.469 153.805,47.469 C151.319,47.469 149.117,48.386 147.2,50.223 C145.283,52.06 144.325,54.463 144.325,57.432 C144.325,60.217 145.214,62.543 146.994,64.41 C148.773,66.277 151.027,67.211 153.759,67.211 Z M176.676,29.796 L164.022,33.202 C162.825,26.759 159.695,23.538 154.633,23.538 C147.27,23.538 143.588,30.545 143.588,44.556 C146.564,39.748 151.258,37.344 157.671,37.344 C163.53,37.344 168.316,39.254 172.029,43.074 C175.74,46.893 177.596,51.411 177.596,56.627 C177.596,62.18 175.55,67.088 171.454,71.353 C167.357,75.617 161.888,77.75 155.047,77.75 C148.297,77.75 142.967,76.017 139.055,72.549 C135.143,69.083 132.489,64.956 131.094,60.17 C129.697,55.384 129,50.735 129,46.227 C129,36.593 131.17,28.646 135.511,22.388 C139.853,16.129 146.287,13 154.817,13 C160.984,13 165.938,14.618 169.682,17.856 C173.425,21.092 175.756,25.073 176.676,29.796 Z" id="Fill-60" fill="#FFFFFF"></path>
        <path d="M208.574,23.538 C205.106,23.538 202.69,25.142 201.326,28.348 C199.96,31.553 199.278,37.176 199.278,45.213 C199.278,53.313 199.991,58.943 201.417,62.103 C202.844,65.263 205.214,66.843 208.528,66.843 C211.811,66.843 214.188,65.294 215.661,62.195 C217.134,59.097 217.87,53.635 217.87,45.812 C217.87,37.222 217.148,31.361 215.707,28.232 C214.265,25.103 211.888,23.538 208.574,23.538 Z M208.39,77.75 C200.688,77.75 194.698,74.697 190.419,68.591 C186.139,62.487 184,54.771 184,45.444 C184,36.301 186.085,28.608 190.258,22.364 C194.43,16.122 200.504,13 208.481,13 C216.397,13 222.472,16.122 226.706,22.364 C230.939,28.608 233.057,36.239 233.057,45.259 C233.057,54.495 230.932,62.218 226.683,68.431 C222.433,74.644 216.335,77.75 208.39,77.75 Z" id="Fill-61" fill="#FFFFFF"></path>
        <path d="M253.161,32.742 C254.867,32.742 256.328,32.112 257.546,30.849 C258.764,29.586 259.374,28.077 259.374,26.322 C259.374,24.537 258.764,23.005 257.546,21.728 C256.328,20.45 254.851,19.811 253.116,19.811 C251.379,19.811 249.894,20.442 248.66,21.705 C247.427,22.968 246.811,24.475 246.811,26.23 C246.811,28.047 247.442,29.586 248.707,30.849 C249.97,32.112 251.455,32.742 253.161,32.742 Z M253.208,39.553 C249.587,39.553 246.481,38.25 243.888,35.642 C241.296,33.034 240,29.888 240,26.207 C240,22.587 241.272,19.481 243.819,16.888 C246.366,14.296 249.434,13 253.023,13 C256.673,13 259.78,14.319 262.342,16.957 C264.904,19.596 266.185,22.725 266.185,26.346 C266.185,30.027 264.911,33.149 262.366,35.71 C259.818,38.273 256.766,39.553 253.208,39.553 Z" id="Fill-62" fill="#FFFFFF"></path>
        <path d="M244.33,49 L244.33,52.993 C257.203,58.216 264.776,64.625 264.776,71.539 C264.776,87.877 222.505,101.35 168,103.22 L186.319,115.807 L170.782,126.481 C242.964,124.122 299.162,105.634 299.162,83.178 C299.162,69.313 277.728,56.964 244.33,49" id="Fill-63" fill="#FFFFFF"></path>
        <path d="M175.058,115.815 L140.341,91.962 L140.341,103.173 C86.59,101.104 45.107,87.73 45.107,71.547 C45.107,64.58 52.785,58.134 65.825,52.888 L65.825,49 C32.435,56.972 11,69.321 11,83.186 C11,105.741 67.696,124.296 140.341,126.523 L140.341,139.665 L175.058,115.815" id="Fill-64" fill="#FFFFFF"></path>
    </g>
</svg>