<?xml version="1.0" encoding="UTF-8"?>
<svg width="187px" height="195px" viewBox="0 0 187 195" version="1.1" xmlns="http://www.w3.org/2000/svg" xmlns:xlink="http://www.w3.org/1999/xlink">
    <!-- Generator: Sketch 49.1 (51147) - http://www.bohemiancoding.com/sketch -->
    <title>360logo2</title>
    <desc>Created with Sketch.</desc>
    <defs></defs>
    <g id="Page-1" stroke="none" stroke-width="1" fill="none" fill-rule="evenodd">
        <g id="360logo2" fill="#FFFFFF" fill-rule="nonzero">
            <path d="M6.773,80.031 C7.287,83.983 8.421,86.812 10.179,88.518 C11.937,90.225 14.24,91.078 17.089,91.078 C20.527,91.078 23.498,89.846 26,87.382 C28.502,84.918 29.752,82.096 29.752,78.914 C29.752,76.144 28.816,73.853 26.943,72.044 C25.07,70.235 22.554,69.33 19.398,69.33 C19.039,69.33 18.294,69.382 17.166,69.484 L18.359,63.672 C19.027,63.776 19.668,63.827 20.283,63.827 C24.261,63.827 27.32,62.858 29.464,60.92 C31.607,58.984 32.677,56.604 32.677,53.781 C32.677,51.189 31.798,49.008 30.041,47.238 C28.283,45.467 26.134,44.581 23.593,44.581 C21.105,44.581 18.867,45.486 16.878,47.295 C14.888,49.104 13.613,51.664 13.048,54.973 L6.197,53.588 C7.326,48.945 9.494,45.352 12.701,42.811 C15.91,40.271 19.705,39 24.095,39 C28.712,39 32.453,40.399 35.314,43.197 C38.173,45.994 39.607,49.431 39.607,53.511 C39.607,56.488 38.83,59.086 37.279,61.305 C35.724,63.526 33.396,65.366 30.291,66.829 C32.498,68.137 34.146,69.715 35.236,71.564 C36.326,73.411 36.873,75.528 36.873,77.913 C36.873,82.969 34.98,87.351 31.195,91.058 C27.412,94.766 22.886,96.62 17.628,96.62 C12.521,96.62 8.396,95.19 5.253,92.329 C2.109,89.468 0.359,85.651 0,80.877 L6.773,80.031 Z" id="Fill-42"></path>
            <path d="M52.851,79.8 C52.851,82.983 53.838,85.657 55.814,87.826 C57.789,89.994 60.021,91.078 62.512,91.078 C64.256,91.078 66.103,90.417 68.055,89.095 C70.004,87.774 71.66,85.766 73.019,83.072 C74.379,80.377 75.058,77.696 75.058,75.027 C75.058,71.589 74.117,68.836 72.23,66.772 C70.344,64.705 68.066,63.672 65.398,63.672 C62.318,63.672 59.457,65.18 56.816,68.195 C54.172,71.21 52.851,75.079 52.851,79.8 Z M55.275,62.942 C57.226,61.325 59.17,60.112 61.105,59.304 C63.045,58.496 64.961,58.091 66.861,58.091 C71.146,58.091 74.687,59.554 77.484,62.479 C80.281,65.405 81.68,69.344 81.68,74.296 C81.68,80.685 79.601,86.164 75.443,90.731 C71.851,94.658 67.49,96.62 62.357,96.62 C57.687,96.62 53.793,94.908 50.676,91.482 C47.557,88.056 46,83.174 46,76.836 C46,71.165 47,65.302 49.002,59.246 C50.541,54.602 52.445,50.773 54.719,47.757 C56.988,44.742 59.4,42.529 61.953,41.118 C64.506,39.706 67.387,39 70.596,39 C74.443,39 77.586,40.2 80.023,42.6 C82.463,44.999 83.848,48.43 84.182,52.895 L77.715,53.511 C77.355,50.458 76.49,48.251 75.117,46.891 C73.744,45.531 72.07,44.851 70.094,44.851 C68.016,44.851 65.924,45.66 63.82,47.276 C61.717,48.893 59.906,51.285 58.392,54.454 C56.879,57.623 55.84,60.453 55.275,62.942 Z" id="Fill-43"></path>
            <path d="M95.736,78.914 C95.736,82.378 96.312,85.086 97.467,87.037 C99.033,89.73 101.355,91.078 104.433,91.078 C107.129,91.078 109.578,89.859 111.785,87.421 C114.967,83.983 117.361,78.948 118.965,72.314 C120.566,65.681 121.371,60.26 121.371,56.051 C121.371,51.996 120.593,49.072 119.041,47.276 C117.49,45.48 115.441,44.581 112.902,44.581 C111.054,44.581 109.328,45.056 107.724,46.005 C106.121,46.955 104.588,48.584 103.125,50.894 C101.047,54.153 99.238,59.029 97.697,65.52 C96.39,71.063 95.736,75.528 95.736,78.914 Z M89,77.144 C89,72.371 89.713,67.522 91.135,62.595 C92.56,57.668 94.144,53.729 95.89,50.778 C97.635,47.828 99.443,45.518 101.316,43.85 C103.189,42.183 105.031,40.957 106.84,40.174 C108.648,39.392 110.656,39 112.863,39 C117.174,39 120.773,40.604 123.66,43.811 C126.547,47.02 127.988,51.652 127.988,57.706 C127.988,63.942 126.988,70.114 124.988,76.22 C122.627,83.456 119.342,88.884 115.135,92.501 C111.9,95.247 108.218,96.62 104.088,96.62 C99.853,96.62 96.281,94.958 93.369,91.635 C90.455,88.313 89,83.482 89,77.144 Z" id="Fill-44"></path>
            <path d="M142.196,49.662 C142.196,51.459 142.828,52.991 144.1,54.262 C145.369,55.531 146.903,56.167 148.7,56.167 C150.469,56.167 151.989,55.531 153.26,54.262 C154.532,52.991 155.166,51.459 155.166,49.662 C155.166,47.866 154.532,46.333 153.26,45.061 C151.989,43.792 150.469,43.157 148.7,43.157 C146.903,43.157 145.369,43.792 144.1,45.061 C142.828,46.333 142.196,47.866 142.196,49.662 Z M138,49.662 C138,46.711 139.043,44.196 141.137,42.118 C143.227,40.04 145.735,39 148.66,39 C151.637,39 154.164,40.04 156.244,42.118 C158.321,44.196 159.362,46.711 159.362,49.662 C159.362,52.613 158.315,55.135 156.225,57.226 C154.131,59.316 151.612,60.362 148.66,60.362 C145.735,60.362 143.227,59.323 141.137,57.245 C139.043,55.166 138,52.639 138,49.662 Z" id="Fill-45"></path>
            <path d="M59.004,127.347 L56,109 L59.039,109 L60.612,119.107 C60.785,120.212 60.998,122.014 61.25,124.513 C61.85,123.212 62.615,121.72 63.549,120.038 L69.682,109 L72.981,109 L62.477,127.347 L59.004,127.347" id="Fill-46"></path>
            <path d="M76.56,105.541 L77.304,102 L80.414,102 L79.671,105.541 L76.56,105.541 Z M72,127.325 L75.835,108.978 L78.962,108.978 L75.126,127.325 L72,127.325 Z" id="Fill-47"></path>
            <path d="M84.731,116.981 L95.028,116.981 C95.037,116.658 95.043,116.428 95.043,116.289 C95.043,114.724 94.653,113.524 93.869,112.688 C93.086,111.854 92.078,111.436 90.846,111.436 C89.51,111.436 88.291,111.897 87.194,112.818 C86.094,113.739 85.274,115.126 84.731,116.981 Z M93.819,121.525 L96.858,121.835 C96.42,123.343 95.416,124.778 93.844,126.136 C92.272,127.495 90.399,128.175 88.221,128.175 C86.862,128.175 85.613,127.861 84.481,127.234 C83.346,126.606 82.483,125.693 81.889,124.495 C81.295,123.298 81,121.933 81,120.402 C81,118.398 81.463,116.454 82.389,114.572 C83.317,112.688 84.518,111.289 85.992,110.373 C87.467,109.457 89.061,109 90.778,109 C92.965,109 94.713,109.68 96.02,111.038 C97.326,112.398 97.981,114.251 97.981,116.601 C97.981,117.499 97.901,118.421 97.74,119.364 L84.231,119.364 C84.184,119.722 84.16,120.044 84.16,120.331 C84.16,122.048 84.555,123.359 85.344,124.263 C86.133,125.166 87.098,125.618 88.238,125.618 C89.309,125.618 90.363,125.267 91.399,124.564 C92.436,123.863 93.242,122.849 93.819,121.525 Z" id="Fill-48"></path>
            <path d="M103.916,127.347 L102,109 L105.006,109 L105.836,117.24 L106.162,121.87 C106.188,122.216 106.221,122.913 106.268,123.96 C106.613,122.785 106.906,121.885 107.146,121.257 C107.391,120.629 107.775,119.734 108.305,118.571 L112.676,109 L116.078,109 L116.684,118.173 C116.775,119.567 116.834,121.427 116.855,123.753 C117.432,122.21 118.369,120.068 119.672,117.327 L123.611,109 L126.738,109 L117.771,127.347 L114.523,127.347 L113.832,116.584 C113.787,115.916 113.752,114.615 113.73,112.68 C113.258,113.912 112.699,115.242 112.055,116.67 L107.199,127.347 L103.916,127.347" id="Fill-49"></path>
            <path d="M171.473,3.988259 C156.322,-5.459741 133.432,2.397259 111,22.074259 L111.467,22.344259 C128.479,9.009259 145.051,4.122259 156.24,11.100259 C173.102,21.614259 172.404,55.720259 156.354,92.637259 L171.733,86.451259 L173.58,98.913259 C191.734,56.280259 191.754,16.635259 171.473,3.988259" id="Fill-50"></path>
            <path d="M139.49659,106.446 L148.09059,111.374 C147.39359,112.617 146.68059,113.862 145.94559,115.103 C119.728588,159.571 82.141588,185.444 61.988588,172.873 C51.506588,166.339 47.848588,150.672 50.424588,130.893 L49.455588,130.333 C43.789588,158.51 47.848588,181.658 62.467588,190.774 C86.787588,205.94 131.055588,176.577 161.34259,125.196 C162.26259,123.637 163.15659,122.076 164.02959,120.512 L172.44559,125.338 L167.94759,95 L139.49659,106.446" id="Fill-51"></path>
        </g>
    </g>
</svg>