<?xml version="1.0" encoding="UTF-8" standalone="no"?>
<svg width="100px" height="100px" viewBox="0 0 100 100" version="1.1" xmlns="http://www.w3.org/2000/svg" xmlns:xlink="http://www.w3.org/1999/xlink">
    <!-- Generator: Sketch 39.1 (31720) - http://www.bohemiancoding.com/sketch -->
    <title>Slice</title>
    <desc>Created with Sketch.</desc>
    <defs></defs>
    <g id="Page-1" stroke="none" stroke-width="1" fill="none" fill-rule="evenodd">
        <rect id="Rectangle" fill="#4BC076" x="0" y="0" width="100" height="100" rx="8"></rect>
        <path d="M42.1842105,26.0894737 C42.4684211,26.9421053 43.3210526,27.3684211 44.1736842,27.3684211 L55.6842105,27.3684211 C56.5368421,27.3684211 57.3894737,26.9421053 57.6736842,26.0894737 L62.2210526,17.7052632 C62.5052632,16.8526316 61.9368421,16 61.0842105,16 L38.9157895,16 C38.0631579,16 37.4947368,16.8526316 37.9210526,17.5631579 L42.1842105,26.0894737 L42.1842105,26.0894737 Z M56.6789474,34.0473684 L43.3210526,34.0473684 C32.0947368,34.0473684 23,43.2842105 23,54.6526316 L23,77.3894737 C23,81.0842105 25.9842105,84.2105263 29.8210526,84.2105263 L70.1789474,84.2105263 C73.8736842,84.2105263 77,81.0842105 77,77.3894737 L77,54.6526316 C77,43.2842105 67.7631579,34.0473684 56.6789474,34.0473684 L56.6789474,34.0473684 Z M53.4105263,72.4157895 L53.4105263,76.2526316 C53.4105263,76.9631579 52.7,77.3894737 51.9894737,77.3894737 L47.4421053,77.3894737 C46.7315789,77.3894737 46.5894737,76.9631579 46.5894737,76.2526316 L46.5894737,72.5578947 C43.1789474,71.8473684 40.3368421,70.4263158 39.6263158,69.7157895 C38.7736842,68.8631579 38.4894737,68.1526316 39.2,67.1578947 L40.6210526,64.8842105 C40.9052632,64.3157895 41.6157895,64.0315789 42.3263158,64.0315789 C42.7526316,64.0315789 43.1789474,64.1736842 43.4631579,64.3157895 L43.6052632,64.3157895 C45.8789474,65.7368421 47.8684211,66.3052632 49.2894737,66.3052632 C50.8526316,66.3052632 52.1315789,65.4526316 52.1315789,64.6 C52.1315789,63.8894737 51.7052632,62.7526316 47.4421053,61.3315789 C43.6052632,59.9105263 38.9157895,57.6368421 38.9157895,52.3789474 C38.9157895,49.2526316 40.9052632,45.7 46.5894737,44.5631579 L46.5894737,41.1526316 C46.5894737,40.4421053 46.8736842,40.0157895 47.4421053,40.0157895 L51.9894737,40.0157895 C52.7,40.0157895 53.4105263,40.4421053 53.4105263,41.1526316 L53.4105263,44.4210526 C55.6842105,44.9894737 58.1,46.1263158 58.9526316,46.6947368 C59.3789474,46.9789474 59.6631579,47.5473684 59.8052632,48.1157895 C59.9473684,48.6842105 59.6631579,49.2526316 59.3789474,49.5368421 L57.3894737,51.5263158 C56.9631579,52.0947368 56.1105263,52.5210526 55.5421053,52.5210526 C55.2578947,52.5210526 54.8315789,52.3789474 54.5473684,52.2368421 C52.2736842,50.9578947 50.4263158,50.2473684 49.1473684,50.2473684 C47.3,50.2473684 46.4473684,51.1 46.4473684,51.6684211 C46.4473684,52.5210526 46.8736842,53.3736842 50.7105263,54.7947368 C55.4,56.3578947 60.6578947,58.9157895 60.6578947,64.3157895 C60.8,68.0105263 57.8157895,71.2789474 53.4105263,72.4157895 L53.4105263,72.4157895 Z" id="Shape" fill="#FFFFFF"></path>
    </g>
</svg>