<?xml version="1.0" encoding="UTF-8"?>
<svg width="240px" height="240px" viewBox="0 0 240 240" version="1.1" xmlns="http://www.w3.org/2000/svg" xmlns:xlink="http://www.w3.org/1999/xlink">
    <!-- Generator: Sketch 42 (36781) - http://www.bohemiancoding.com/sketch -->
    <title>Slice</title>
    <desc>Created with Sketch.</desc>
    <defs></defs>
    <g id="Page-1" stroke="none" stroke-width="1" fill="none" fill-rule="evenodd">
        <rect id="Rectangle" fill="#5AA9C8" x="0" y="0" width="240" height="240" rx="8"></rect>
        <g id="Group" transform="translate(30.000000, 63.000000)" fill-rule="nonzero" fill="#FFFFFF">
            <path d="M176,53.6666667 C160.333333,22 127.666667,0 90,0 C52.3333333,0 19.6666667,22 4,53.6666667 C3,55.6666667 3,58 4,59.6666667 C19.6666667,91.3333333 52.3333333,113.333333 90,113.333333 C127.666667,113.333333 160.333333,91.3333333 176,59.6666667 C177,57.6666667 177,55.6666667 176,53.6666667 L176,53.6666667 Z M90,93.3333333 C69.6666667,93.3333333 53.3333333,77 53.3333333,56.6666667 C53.3333333,36.3333333 69.6666667,20 90,20 C110.333333,20 126.666667,36.3333333 126.666667,56.6666667 C126.666667,77 110.333333,93.3333333 90,93.3333333 L90,93.3333333 Z M90,33.3333333 C77,33.3333333 66.6666667,43.6666667 66.6666667,56.6666667 C66.6666667,69.6666667 77,80 90,80 C103,80 113.333333,69.6666667 113.333333,56.6666667 C113.333333,43.6666667 103,33.3333333 90,33.3333333 L90,33.3333333 Z" id="Shape"></path>
        </g>
    </g>
</svg>