<?xml version="1.0" encoding="utf-8"?>
<!-- Generator: Adobe Illustrator 16.0.0, SVG Export Plug-In . SVG Version: 6.00 Build 0)  -->
<!DOCTYPE svg PUBLIC "-//W3C//DTD SVG 1.1//EN" "http://www.w3.org/Graphics/SVG/1.1/DTD/svg11.dtd">
<svg version="1.1" xmlns="http://www.w3.org/2000/svg" xmlns:xlink="http://www.w3.org/1999/xlink" x="0px" y="0px"
	 width="88.316px" height="88.318px" viewBox="0 0 88.316 88.318" enable-background="new 0 0 88.316 88.318" xml:space="preserve">
<g id="Layer_1_copy">
	<path fill="#3E99BE" d="M88.316,73.268c0,8.312-6.738,15.051-15.054,15.051H15.05C6.737,88.319,0,81.581,0,73.268V15.052
		C0,6.74,6.737,0,15.05,0h58.214c8.313,0,15.054,6.74,15.054,15.052L88.316,73.268L88.316,73.268z"/>
</g>
<g id="Layer_5">
	<g>
		<path fill="#FFFFFF" d="M53.605,24.192c-0.792-0.34-1.583,0.225-1.583,1.018v4.293c0,0.792,0.452,1.583,1.13,1.922
			c5.99,3.39,9.833,10.171,8.929,17.742c-0.905,8.25-7.572,15.031-15.936,15.936c-10.849,1.243-20.116-7.346-20.116-17.969
			c0-6.668,3.617-12.545,9.042-15.708c0.678-0.34,1.13-1.13,1.13-1.922v-4.293c0-0.792-0.792-1.357-1.582-1.018
			c-9.606,3.956-16.274,13.9-15.257,25.202c1.017,11.641,10.284,21.134,21.924,22.49c14.918,1.582,27.688-10.059,27.688-24.75
			C68.974,36.736,62.646,27.921,53.605,24.192z M47.502,19.445c0-0.904-0.791-1.695-1.695-1.695h-3.39
			c-0.904,0-1.695,0.792-1.695,1.695v19.212c0,0.904,0.792,1.695,1.695,1.695h3.39c0.904,0,1.695-0.791,1.695-1.695V19.445z"/>
	</g>
</g>
</svg>