<?xml version="1.0" encoding="utf-8"?>
<!-- Generator: Adobe Illustrator 16.0.0, SVG Export Plug-In . SVG Version: 6.00 Build 0)  -->
<!DOCTYPE svg PUBLIC "-//W3C//DTD SVG 1.1//EN" "http://www.w3.org/Graphics/SVG/1.1/DTD/svg11.dtd">
<svg version="1.1" id="Layer_1" xmlns="http://www.w3.org/2000/svg" xmlns:xlink="http://www.w3.org/1999/xlink" x="0px" y="0px"
	 width="88.316px" height="88.318px" viewBox="0 0 88.316 88.318" enable-background="new 0 0 88.316 88.318" xml:space="preserve">
<g id="Layer_1_copy">
	<path fill="#EA74A2" d="M88.316,73.268c0,8.312-6.738,15.051-15.054,15.051H15.05C6.737,88.319,0,81.581,0,73.268V15.052
		C0,6.74,6.737,0,15.05,0h58.215c8.312,0,15.054,6.74,15.054,15.052L88.316,73.268L88.316,73.268z"/>
</g>
<g id="Layer_5">
	<g>
		<path fill="#FFFFFF" d="M77.931,50.581H40.867c-0.722,0-1.354,0.633-1.354,1.356v22.146c0,1.99,1.627,3.616,3.615,3.616h32.543
			c1.99,0,3.616-1.626,3.616-3.616V51.937C79.287,51.214,78.654,50.581,77.931,50.581z M53.072,70.469
			c0,0.544-0.362,0.903-0.904,0.903h-3.616c-0.543,0-0.902-0.359-0.902-0.903v-3.615c0-0.543,0.359-0.904,0.902-0.904h3.616
			c0.542,0,0.904,0.361,0.904,0.904V70.469z M53.072,61.427c0,0.544-0.362,0.904-0.904,0.904h-3.616
			c-0.543,0-0.902-0.36-0.902-0.904v-3.615c0-0.543,0.359-0.903,0.902-0.903h3.616c0.542,0,0.904,0.36,0.904,0.903V61.427z
			 M62.111,70.469c0,0.544-0.362,0.903-0.903,0.903h-3.616c-0.543,0-0.903-0.359-0.903-0.903v-3.615c0-0.543,0.36-0.904,0.903-0.904
			h3.616c0.541,0,0.903,0.361,0.903,0.904V70.469z M62.111,61.427c0,0.544-0.362,0.904-0.903,0.904h-3.616
			c-0.543,0-0.903-0.36-0.903-0.904v-3.615c0-0.543,0.36-0.903,0.903-0.903h3.616c0.541,0,0.903,0.36,0.903,0.903V61.427z
			 M71.151,70.469c0,0.544-0.362,0.903-0.904,0.903h-3.615c-0.542,0-0.903-0.359-0.903-0.903v-3.615
			c0-0.543,0.361-0.904,0.903-0.904h3.615c0.542,0,0.904,0.361,0.904,0.904V70.469z M71.151,61.427c0,0.544-0.362,0.904-0.904,0.904
			h-3.615c-0.542,0-0.903-0.36-0.903-0.904v-3.615c0-0.543,0.361-0.903,0.903-0.903h3.615c0.542,0,0.904,0.36,0.904,0.903V61.427z
			 M75.671,38.829h-4.52v-1.808c0-1.447-1.175-2.712-2.712-2.712c-1.447,0-2.712,1.175-2.712,2.712v1.808H53.072v-1.808
			c0-1.447-1.175-2.712-2.712-2.712c-1.447,0-2.712,1.175-2.712,2.712v1.808h-4.521c-1.987,0-3.616,1.628-3.616,3.616v2.261
			c0,0.722,0.634,1.355,1.355,1.355H77.93c0.723,0,1.354-0.635,1.354-1.355v-2.261C79.287,40.457,77.661,38.829,75.671,38.829z"/>
	</g>
	<path fill="#FFFFFF" d="M32.7,30.25c-0.4-0.398-1-0.398-1.4,0L7.4,54.15c-1.2,1.199-1.2,3,0,4.199s3,1.199,4.2,0L35.5,34.45
		c0.4-0.4,0.4-1,0-1.4L32.7,30.25z"/>
	<path fill="#FFFFFF" d="M39.7,30.25l3.2-3.2c0.6-0.6,0.6-1.5,0-2.1l-2.102-2.1c-0.6-0.602-1.5-0.602-2.1,0l-3.2,3.198
		c-0.399,0.4-0.399,1,0,1.4l2.8,2.8C38.7,30.649,39.3,30.649,39.7,30.25z"/>
	<path fill="#FFFFFF" d="M14.9,20.85c3.8,1.198,6.8,4.1,8,8c0.2,0.6,1,0.6,1.2,0c1.199-3.802,4.1-6.802,8-8
		c0.601-0.201,0.601-1,0-1.201c-3.801-1.199-6.801-4.101-8-8c-0.2-0.601-1-0.601-1.2,0c-1.2,3.8-4.101,6.8-8,8
		C14.4,19.85,14.4,20.649,14.9,20.85z"/>
	<path fill="#FFFFFF" d="M42.8,17.649c2.602,0.801,4.5,2.701,5.301,5.301c0.101,0.4,0.699,0.4,0.801,0c0.8-2.6,2.699-4.5,5.3-5.301
		c0.399-0.101,0.399-0.699,0-0.799c-2.601-0.802-4.5-2.701-5.3-5.302c-0.102-0.399-0.7-0.399-0.801,0
		c-0.801,2.601-2.699,4.5-5.301,5.302C42.4,16.95,42.4,17.55,42.8,17.649z"/>
	<path fill="#FFFFFF" d="M42.875,34.91c3.8,1.199,6.8,4.1,8,8c0.201,0.6,1,0.6,1.201,0c1.199-3.801,4.1-6.801,7.999-8
		c0.601-0.201,0.601-1,0-1.201c-3.8-1.199-6.8-4.1-7.999-8c-0.201-0.6-1-0.6-1.201,0c-1.199,3.801-4.1,6.801-8,8
		C42.375,33.91,42.375,34.709,42.875,34.91z"/>
</g>
</svg>