<?xml version="1.0" encoding="UTF-8" standalone="no"?>
<svg width="100px" height="100px" viewBox="0 0 100 100" version="1.1" xmlns="http://www.w3.org/2000/svg" xmlns:xlink="http://www.w3.org/1999/xlink">
    <!-- Generator: Sketch 40.1 (33804) - http://www.bohemiancoding.com/sketch -->
    <title>Slice</title>
    <desc>Created with Sketch.</desc>
    <defs></defs>
    <g id="Page-1" stroke="none" stroke-width="1" fill="none" fill-rule="evenodd">
        <rect id="Rectangle" fill="#65CAE4" x="0" y="0" width="100" height="100" rx="8"></rect>
        <path d="M32.9886364,17 L19.2840909,17 C18.0659091,17 17,18.0659091 17,19.2840909 L17,45.1704545 C17,46.3886364 18.0659091,47.4545455 19.2840909,47.4545455 L32.9886364,47.4545455 C34.2068182,47.4545455 35.2727273,46.3886364 35.2727273,45.1704545 L35.2727273,19.2840909 C35.2727273,18.0659091 34.2068182,17 32.9886364,17 L32.9886364,17 Z M57.3522727,17 L43.6477273,17 C42.4295455,17 41.3636364,18.0659091 41.3636364,19.2840909 L41.3636364,45.1704545 C41.3636364,46.3886364 42.4295455,47.4545455 43.6477273,47.4545455 L57.3522727,47.4545455 C58.5704545,47.4545455 59.6363636,46.3886364 59.6363636,45.1704545 L59.6363636,19.2840909 C59.6363636,18.0659091 58.5704545,17 57.3522727,17 L57.3522727,17 Z M81.7159091,17 L68.0113636,17 C66.7931818,17 65.7272727,18.0659091 65.7272727,19.2840909 L65.7272727,45.1704545 C65.7272727,46.3886364 66.7931818,47.4545455 68.0113636,47.4545455 L81.7159091,47.4545455 C82.9340909,47.4545455 84,46.3886364 84,45.1704545 L84,19.2840909 C84,18.0659091 82.9340909,17 81.7159091,17 L81.7159091,17 Z M32.9886364,53.5454545 L19.2840909,53.5454545 C18.0659091,53.5454545 17,54.6113636 17,55.8295455 L17,81.7159091 C17,82.9340909 18.0659091,84 19.2840909,84 L32.9886364,84 C34.2068182,84 35.2727273,82.9340909 35.2727273,81.7159091 L35.2727273,55.8295455 C35.2727273,54.6113636 34.2068182,53.5454545 32.9886364,53.5454545 L32.9886364,53.5454545 Z M57.3522727,53.5454545 L43.6477273,53.5454545 C42.4295455,53.5454545 41.3636364,54.6113636 41.3636364,55.8295455 L41.3636364,81.7159091 C41.3636364,82.9340909 42.4295455,84 43.6477273,84 L57.3522727,84 C58.5704545,84 59.6363636,82.9340909 59.6363636,81.7159091 L59.6363636,55.8295455 C59.6363636,54.6113636 58.5704545,53.5454545 57.3522727,53.5454545 L57.3522727,53.5454545 Z M81.7159091,53.5454545 L68.0113636,53.5454545 C66.7931818,53.5454545 65.7272727,54.6113636 65.7272727,55.8295455 L65.7272727,81.7159091 C65.7272727,82.9340909 66.7931818,84 68.0113636,84 L81.7159091,84 C82.9340909,84 84,82.9340909 84,81.7159091 L84,55.8295455 C84,54.6113636 82.9340909,53.5454545 81.7159091,53.5454545 L81.7159091,53.5454545 Z" id="Shape" fill="#FFFFFF"></path>
    </g>
</svg>